<?xml version="1.0" encoding="UTF-8"?>
<svg width="21.4153846px" height="24px" viewBox="0 0 21.4153846 24" version="1.1" xmlns="http://www.w3.org/2000/svg" xmlns:xlink="http://www.w3.org/1999/xlink">
    <title>Group 4</title>
    <g id="Symbols" stroke="none" stroke-width="1" fill="none" fill-rule="evenodd">
        <g id="header/main" transform="translate(-1334.000000, -71.000000)" fill="#FFFFFF">
            <g id="Group-4" transform="translate(1334.000000, 71.000000)">
                <g id="icon/001-shopping-bag" transform="translate(-0.000000, 0.000000)" fill-rule="nonzero">
                    <g id="Shape">
                        <path d="M4.16492308,24 L17.2504615,24 C19.5470769,24 21.4153846,22.1316923 21.4153846,19.8350769 L21.4153846,7.38461538 C21.4153846,6.97846154 21.0830769,6.64615385 20.6769231,6.64615385 L16.2461538,6.64615385 L16.2461538,5.53846154 C16.2461538,2.48492308 13.7612308,0 10.7076923,0 C7.65415385,0 5.16923077,2.48492308 5.16923077,5.53846154 L5.16923077,6.64615385 L0.738461538,6.64615385 C0.332307692,6.64615385 0,6.97846154 0,7.38461538 L0,19.8350769 C0,22.1316923 1.86830769,24 4.16492308,24 Z M6.64615385,5.53846154 C6.64615385,3.29723077 8.46646154,1.47692308 10.7076923,1.47692308 C12.9489231,1.47692308 14.7692308,3.29723077 14.7692308,5.53846154 L14.7692308,6.64615385 L6.64615385,6.64615385 L6.64615385,5.53846154 Z M1.47692308,8.12307692 L5.16923077,8.12307692 L5.16923077,9.96923077 C5.16923077,10.3753846 5.50153846,10.7076923 5.90769231,10.7076923 C6.31384615,10.7076923 6.64615385,10.3753846 6.64615385,9.96923077 L6.64615385,8.12307692 L14.7692308,8.12307692 L14.7692308,9.96923077 C14.7692308,10.3753846 15.1015385,10.7076923 15.5076923,10.7076923 C15.9138462,10.7076923 16.2461538,10.3753846 16.2461538,9.96923077 L16.2461538,8.12307692 L19.9384615,8.12307692 L19.9384615,19.8350769 C19.9384615,21.3156923 18.7310769,22.5230769 17.2504615,22.5230769 L4.16492308,22.5230769 C2.68430769,22.5230769 1.47692308,21.3156923 1.47692308,19.8350769 L1.47692308,8.12307692 Z"></path>
                    </g>
                </g>
                <text id="1" font-family=".AppleSystemUIFont" font-size="7" font-weight="normal">
                    <tspan x="9.26196289" y="18">1</tspan>
                </text>
            </g>
        </g>
    </g>
</svg>